<svg width="174" height="63" viewBox="0 0 174 63" fill="none" xmlns="http://www.w3.org/2000/svg">
<g clip-path="url(#clip0_793_222)">
<path d="M28.2071 33.2485C30.8188 33.2817 32.9862 33.8572 34.4833 35.9155C36.4595 38.6332 36.1195 42.461 33.6836 44.9348C33.2798 45.3445 33.274 45.5806 33.6411 46.004C35.3236 47.9432 37.1916 49.5879 39.7898 50.1205C41.3583 50.4424 42.9114 50.22 44.4491 49.8708C45.6236 49.6035 46.7884 49.2894 47.9842 49.1274C48.3898 49.0728 48.7994 49.026 49.2069 49.0299C50.2617 49.0377 50.8914 49.4845 51.1966 50.3956C51.5076 51.3242 51.243 52.091 50.3563 52.7445C48.9635 53.7707 47.3332 54.2195 45.6989 54.6526C42.8033 55.4193 39.9192 55.7081 37.0371 54.5609C34.7943 53.6693 32.9553 52.1905 31.1858 50.5965C30.4846 49.9664 29.8124 49.2972 28.9914 48.8192C28.7866 48.7002 28.5471 48.5148 28.3211 48.6709C28.1202 48.8094 28.2361 49.0767 28.267 49.2874C28.5065 50.9477 28.7383 52.6099 28.9953 54.2663C29.3971 56.8611 26.5941 57.9107 25.0062 57.1401C24.1505 56.7245 23.656 56.0826 23.5169 55.1403C22.7848 50.1868 22.0488 45.2353 21.3166 40.2818C21.1602 39.2243 21.0868 38.1455 20.8337 37.1114C20.5324 35.8921 21.2896 34.425 22.8562 34.0426C24.6817 33.5978 26.5516 33.3675 28.209 33.2485H28.2071ZM28.4737 38.1981C28.0468 38.2528 27.6199 38.3347 27.1891 38.3523C26.7235 38.3718 26.6289 38.6 26.6984 39.0117C26.853 39.9423 26.9843 40.8768 27.1311 41.8094C27.1736 42.0845 27.2355 42.3322 27.6257 42.2659C28.3134 42.1488 28.9972 42.0318 29.6366 41.7352C29.9785 41.5772 30.2528 41.3489 30.3842 40.988C30.9154 39.5228 30.0036 38.2079 28.4737 38.2001V38.1981Z" fill="#FEFEFE"/>
<path d="M9.24333 37.5388C11.8782 37.6227 14.0591 38.3777 15.3457 40.7735C16.3965 42.7303 16.6109 44.6911 15.1641 46.5796C14.9767 46.8254 14.8898 46.9678 15.3012 47.0517C17.967 47.5902 19.099 49.5197 19.5607 51.9799C20.146 55.1034 18.7996 57.7781 15.902 59.3857C14.884 59.9515 13.808 60.3651 12.6721 60.6304C10.9104 61.0441 9.16026 61.5045 7.39659 61.9025C5.78167 62.2673 4.77717 61.641 4.38309 60.0217C3.45393 56.1959 2.54988 52.3623 1.63811 48.5325C1.14358 46.4508 0.662583 44.3672 0.154538 42.2894C-0.305214 40.4106 0.254988 39.3903 2.1307 38.9552C4.26333 38.4597 6.35539 37.7593 8.55949 37.5954C8.82414 37.5759 9.08686 37.5544 9.24526 37.5408L9.24333 37.5388ZM13.7752 53.4567C13.779 51.5624 12.8267 50.6942 11.0572 51.018C10.3232 51.1527 9.60456 51.3731 8.87243 51.5194C8.51313 51.5916 8.46484 51.7477 8.54597 52.0755C8.84925 53.3026 9.14674 54.5317 9.41139 55.7667C9.49831 56.1764 9.68762 56.2993 10.0643 56.194C10.8061 55.9852 11.5653 55.8233 12.2877 55.556C13.2922 55.1873 13.7732 54.4517 13.7752 53.4548V53.4567ZM8.57495 42.5372C7.96838 42.5567 7.38307 42.7069 6.79776 42.8454C6.53311 42.9079 6.37857 43.0347 6.46357 43.3644C6.73594 44.4238 6.98513 45.489 7.23819 46.5523C7.29228 46.7786 7.35216 46.999 7.65351 46.9288C8.35473 46.763 9.08106 46.6615 9.69728 46.244C10.4391 45.7407 10.6226 44.9583 10.2729 43.8229C10.0006 42.9352 9.46934 42.5352 8.57495 42.5391V42.5372Z" fill="#FEFEFE"/>
<path d="M152.539 44.6852C152.454 47.3131 151.718 50.4327 149.522 53.0548C147.92 54.9668 145.836 55.9598 143.419 56.3617C141.103 56.748 138.862 56.2271 136.606 55.8681C136.44 55.8408 136.274 55.8135 136.108 55.7881C134.201 55.5072 133.396 54.3932 133.714 52.4617C133.94 51.0941 134.176 49.7284 134.402 48.3627C135.167 43.7604 135.922 39.1561 136.695 34.5558C136.906 33.3032 137.75 32.4585 138.976 32.5443C142.086 32.7609 145.183 33.1706 147.903 34.8913C151.21 36.9828 152.583 40.118 152.537 44.6813L152.539 44.6852ZM146.655 44.2013C146.657 43.1771 146.576 42.3986 146.373 41.6495C145.867 39.7805 144.988 38.2275 142.913 37.7495C142.378 37.6266 142.098 37.65 141.998 38.3231C141.625 40.8203 141.186 43.3078 140.771 45.7992C140.487 47.5004 140.205 49.2017 139.919 50.9029C139.834 51.4141 139.77 51.8023 140.52 51.9018C141.868 52.0813 143.012 51.7106 143.985 50.821C145.989 48.9851 146.51 46.5425 146.653 44.2013H146.655Z" fill="#FEFEFE"/>
<path d="M121.821 54.0518C120.076 54.0031 118.075 53.6597 116.298 52.4755C113.912 50.8854 113.066 48.4974 113.014 45.768C112.969 43.4288 113.425 41.1208 113.617 38.7953C113.792 36.6648 114.078 34.5441 114.268 32.4137C114.428 30.6168 115.73 29.4521 117.488 29.6784C118.94 29.8638 120.399 31.1358 120.148 33.0185C119.613 37.0648 119.286 41.1384 118.883 45.2023C118.844 45.5886 118.85 45.9807 118.871 46.3689C118.964 48.0526 119.806 49.0613 121.224 49.2095C122.914 49.3871 123.948 48.6535 124.39 46.9269C124.767 45.4598 124.805 43.9458 124.966 42.4494C125.286 39.4274 125.57 36.4015 125.891 33.3794C126.069 31.7055 127.396 30.7359 129.208 30.9329C130.409 31.0636 131.972 32.123 131.769 33.9003C131.275 38.2471 130.871 42.6055 130.326 46.9445C130.042 49.2056 129.082 51.1859 127.201 52.5847C125.702 53.7007 123.978 54.0694 121.819 54.0479L121.821 54.0518Z" fill="#FEFEFE"/>
<path d="M81.3046 52.3272C78.2003 52.1809 75.5808 51.1078 73.906 48.2887C73.2937 47.2586 73.0677 46.1212 73.1333 44.9252C73.1662 44.336 73.4154 43.8541 73.8539 43.4639C74.7444 42.6699 76.5177 42.5002 77.5338 43.1206C78.2215 43.54 78.4514 44.1936 78.5093 44.9662C78.6929 47.3834 80.9974 47.998 82.5273 47.1825C84.007 46.3943 84.2311 44.4472 82.9968 43.3001C82.1912 42.5509 81.1558 42.2641 80.159 41.9051C79.1391 41.5383 78.1037 41.2184 77.1146 40.756C74.7193 39.6381 73.5525 37.7359 73.4598 35.1119C73.3671 32.5054 74.6536 30.73 76.8191 29.5165C80.0006 27.7353 84.0013 28.1274 86.7675 30.5134C88.1564 31.7113 88.8596 33.276 88.9078 35.1275C88.931 35.9898 88.5543 36.6239 87.7778 36.9984C86.839 37.453 85.8654 37.4842 84.8976 37.1292C84.0186 36.8073 83.5203 36.14 83.4855 35.1997C83.4275 33.6467 81.8648 32.8234 80.4102 33.3482C79.3303 33.7364 79.0174 34.9948 79.7515 35.9235C80.3059 36.6239 81.1075 36.9185 81.8976 37.2131C82.9813 37.6169 84.092 37.9544 85.1699 38.3739C87.799 39.3942 89.4371 41.2125 89.6496 44.1546C89.8776 47.3035 88.564 49.6114 85.8886 51.1586C84.4784 51.9741 82.9446 52.3545 81.3046 52.3252V52.3272Z" fill="#FEFEFE"/>
<path d="M61.7497 53.1876C58.9815 53.012 56.4471 52.0151 54.78 49.3617C54.2661 48.5423 54.0131 47.6312 53.9184 46.6772C53.7987 45.4969 54.3125 44.6599 55.3962 44.1956C56.0298 43.9244 56.6769 43.7937 57.3666 43.9244C58.6067 44.1624 59.0704 44.617 59.2558 45.8734C59.4277 47.0303 59.9628 47.9102 61.1103 48.2438C62.1495 48.5462 63.1231 48.3472 63.9132 47.5454C64.8675 46.5758 64.7844 45.0072 63.7645 44.1039C63.1444 43.5557 62.3968 43.2962 61.6338 43.066C60.3183 42.668 58.9776 42.3597 57.6872 41.87C53.2134 40.1746 52.8386 34.8368 54.7877 32.3766C56.167 30.6364 58.0214 29.6804 60.1676 29.3858C62.5745 29.0561 64.8346 29.5263 66.7741 31.0988C68.221 32.2713 69.0304 33.793 69.1154 35.6855C69.1521 36.5302 68.7908 37.1448 68.051 37.5174C67.1257 37.9837 66.1482 38.091 65.1727 37.7515C64.3691 37.4726 63.7954 36.9068 63.7394 36.0015C63.6428 34.4427 62.0085 33.596 60.4825 34.2808C59.3099 34.8056 59.2268 36.2864 60.3125 37.1506C60.9306 37.6442 61.6724 37.8764 62.4161 38.0871C63.8765 38.5027 65.3504 38.8499 66.7548 39.4606C71.0181 41.3121 71.3755 47.241 68.926 50.0348C67.0658 52.1575 64.7207 53.1271 61.7497 53.1837V53.1876Z" fill="#FEFEFE"/>
<path d="M167.149 52.3133C165.679 52.1885 164.268 51.7456 162.835 51.4276C161.232 51.0725 161.236 51.0511 160.857 52.6899C160.71 53.3298 160.618 53.9873 160.409 54.6038C160.189 55.2534 160.492 55.3881 161.023 55.5032C162.978 55.9246 164.927 56.3733 166.876 56.824C167.346 56.9332 167.804 57.0756 168.217 57.3468C169.272 58.0316 169.702 59.0851 169.341 60.1543C168.965 61.2663 167.863 62.0174 166.675 61.8165C165.132 61.5551 163.606 61.1922 162.078 60.8488C160.032 60.3884 157.99 59.9123 155.95 59.4305C154.38 59.0598 153.632 57.9068 153.984 56.3284C155.301 50.3975 156.634 44.4685 157.973 38.5415C158.379 36.7427 159.426 36.0969 161.224 36.5027C164.446 37.2304 167.666 37.964 170.885 38.6995C172.567 39.0838 173.467 40.4242 173.042 41.8893C172.755 42.8785 172.015 43.4345 170.894 43.534C169.886 43.6237 168.936 43.3233 167.972 43.1145C166.583 42.8121 165.19 42.5136 163.813 42.1625C163.324 42.0376 163.173 42.1976 163.084 42.6424C162.885 43.6433 162.684 44.646 162.424 45.6332C162.287 46.1541 162.451 46.318 162.932 46.4195C164.512 46.7492 166.086 47.116 167.663 47.4691C168.188 47.5862 168.665 47.8144 169.088 48.15C169.791 48.708 170.112 49.4415 169.967 50.3331C169.82 51.2267 169.272 51.81 168.439 52.1221C168.026 52.2763 167.593 52.3094 167.154 52.3114L167.149 52.3133Z" fill="#FEFEFE"/>
<path d="M110.619 50.3333C110.62 51.9585 109.32 53.0881 107.771 52.9476C106.149 52.8013 105.096 52.1555 104.704 50.3879C104.483 49.3929 104.122 48.4311 103.858 47.4439C103.761 47.085 103.568 46.9952 103.237 46.9835C101.864 46.9386 100.489 46.8996 99.117 46.8079C98.6766 46.7787 98.524 46.962 98.3926 47.323C98.0102 48.3726 97.6161 49.4203 97.2008 50.4582C96.3933 52.4735 93.3586 52.9847 91.8904 51.3615C91.3071 50.7137 91.251 49.988 91.5563 49.19C93.005 45.3993 94.4403 41.6027 95.8833 37.8101C96.7565 35.5157 97.6373 33.2233 98.5028 30.9271C99.1035 29.3331 100.158 28.6873 102.098 28.7576C103.697 28.8142 104.663 29.5438 105.111 31.089C106.885 37.2072 108.65 43.3274 110.414 49.4476C110.514 49.7968 110.576 50.1558 110.617 50.3372L110.619 50.3333ZM101.578 38.7582C101.522 38.7524 101.466 38.7465 101.41 38.7407C101.043 39.6615 100.676 40.5824 100.307 41.5032C100.195 41.7842 100.295 41.9051 100.589 41.9168C101.093 41.9383 101.597 41.9812 102.102 42.0105C102.393 42.0281 102.569 41.9637 102.449 41.5949C102.146 40.6546 101.868 39.7045 101.578 38.7582Z" fill="#FEFEFE"/>
<path d="M36.4884 33.9275C36.4691 32.5208 36.9849 31.8224 38.3159 31.559C39.8497 31.2546 41.4047 31.0537 42.952 30.8137C44.0705 30.6401 45.1928 30.484 46.3113 30.3084C47.507 30.1211 48.5598 30.7825 48.7955 31.8829C49.0408 33.03 48.4748 33.986 47.2192 34.2572C45.7376 34.5791 44.2308 34.7878 42.7279 34.9888C42.1909 35.061 42.1098 35.2853 42.1832 35.7575C42.4015 37.1271 42.3899 37.1271 43.7556 36.9261C44.7079 36.7856 45.6584 36.5944 46.6184 36.5301C47.9455 36.4403 48.7665 37.1192 48.9307 38.3171C49.0659 39.3063 48.583 40.0672 47.5186 40.3988C46.4117 40.7441 45.2508 40.8378 44.1091 41.0056C43.0563 41.1616 43.0544 41.1382 43.1664 42.2191C43.1819 42.3634 43.2147 42.5098 43.2147 42.6541C43.2109 43.3721 43.6069 43.4677 44.2038 43.3623C45.272 43.1731 46.3461 43.0268 47.4162 42.8531C47.99 42.7595 48.5656 42.7224 49.1451 42.7517C50.082 42.8024 50.6557 43.2706 50.8451 44.1408C51.0885 45.2567 50.8122 45.9747 49.9565 46.4449C49.2359 46.839 48.4227 46.8487 47.6422 46.9716C45.5 47.3111 43.3538 47.6115 41.2096 47.9374C39.5811 48.1851 38.4839 47.3833 38.2367 45.7523C37.6784 42.0513 37.1182 38.3523 36.5618 34.6513C36.5193 34.3625 36.502 34.0699 36.4884 33.9216V33.9275Z" fill="#FEFEFE"/>
<path d="M43.1471 15.251C43.1761 16.4957 43.4272 18.2945 44.3158 19.9373C44.8876 20.9947 45.6564 21.8746 46.914 22.058C48.7781 22.3291 50.3486 21.0298 50.5939 19.0769C50.6326 18.7628 50.6499 18.4448 50.7253 18.1385C50.9339 17.2898 51.6738 16.8138 52.5315 16.9484C53.4085 17.0869 53.8701 17.6507 53.8586 18.5657C53.8161 21.8063 51.0382 24.7132 47.847 24.9707C44.594 25.2322 42.5212 23.5602 41.1903 20.8269C39.473 17.2995 39.2643 13.6337 40.7324 9.94636C41.7988 7.26963 44.2405 5.79665 47.1806 5.98395C49.8985 6.15953 52.3943 8.21195 53.0762 10.8321C53.3602 11.9227 52.97 12.7089 52.0234 12.9586C50.988 13.2337 50.2636 12.7928 49.9642 11.7061C49.4928 9.99318 48.2874 8.90064 46.8097 8.84406C45.4362 8.79139 44.4916 9.38838 43.8831 10.6741C43.2862 11.9363 43.1278 13.2767 43.1432 15.2491L43.1471 15.251Z" fill="#FEFEFE"/>
<path d="M120.053 24.2098C115.39 24.2547 112.282 20.5712 112.867 15.8089C113.114 13.8053 113.705 11.9499 115.185 10.5082C116.955 8.78546 119.07 8.44794 121.357 9.13663C123.43 9.76289 124.915 11.0564 125.468 13.2493C125.609 13.8111 125.707 14.3906 125.622 14.9837C125.487 15.9279 125.083 16.3533 124.139 16.3064C122.526 16.2284 120.919 16.0684 119.307 15.9416C118.419 15.8714 117.528 15.807 116.642 15.7192C116.236 15.6802 116.051 15.8597 116.031 16.2401C115.942 17.9257 116.12 19.5626 117.581 20.6454C119.062 21.7457 120.681 21.7009 122.29 20.8541C122.723 20.6278 123.159 20.4054 123.662 20.4796C124.204 20.5615 124.73 20.7449 124.919 21.3224C125.118 21.9252 124.944 22.4676 124.471 22.9105C123.745 23.5874 122.825 23.8118 121.908 24.0108C121.272 24.1493 120.621 24.2254 120.055 24.2078L120.053 24.2098ZM121.68 13.657C122.275 13.7663 122.238 13.4483 122.054 13.0366C121.631 12.0806 120.942 11.4719 119.883 11.3549C118.751 11.23 117.951 11.7568 117.343 12.6757C117.076 13.0795 117.123 13.2727 117.638 13.3137C118.979 13.4151 120.318 13.54 121.68 13.659V13.657Z" fill="#FEFEFE"/>
<path d="M143.205 20.9108C143.307 18.2419 144.028 15.8129 146.131 14.0317C148.015 12.4358 150.178 12.3148 152.392 13.1928C154.486 14.0239 155.854 15.53 156.176 17.8595C156.194 17.9804 156.205 18.1014 156.213 18.2224C156.323 20.2514 155.647 20.8347 153.675 20.4757C151.544 20.0894 149.402 19.7578 147.271 19.3695C146.748 19.2739 146.543 19.4046 146.479 19.947C146.272 21.7146 146.371 23.3983 147.936 24.5552C149.265 25.5385 150.75 25.5931 152.259 24.9824C152.641 24.8283 153.006 24.6547 153.431 24.6605C154.125 24.6703 154.674 24.9298 154.898 25.6185C155.126 26.315 154.822 26.8554 154.252 27.2475C153.451 27.8016 152.522 27.9791 151.585 28.0669C148.72 28.3381 146.211 27.6241 144.435 25.1853C143.524 23.9348 143.168 22.4716 143.203 20.9088L143.205 20.9108ZM150.229 15.1964C149.271 15.2432 148.55 15.7037 148.007 16.4821C147.77 16.8235 147.845 16.9835 148.264 17.0479C149.638 17.2586 151.011 17.4732 152.377 17.7268C152.86 17.8165 152.842 17.5961 152.786 17.2625C152.601 16.1602 151.415 15.2003 150.229 15.1964Z" fill="#FEFEFE"/>
<path d="M68.5764 16.1054C68.5204 18.667 67.8694 20.975 65.6324 22.5065C63.1965 24.1746 58.8057 24.0361 56.8469 20.5575C55.1065 17.4633 54.894 14.2305 56.7214 11.1207C59.1148 7.04707 65.1476 7.25777 67.4386 11.4094C68.2441 12.8687 68.588 14.4432 68.5745 16.1073L68.5764 16.1054ZM65.3446 16.3805C65.3581 14.7475 65.0008 13.3975 64.3575 12.4317C63.069 10.5003 60.5868 10.59 59.4355 12.6093C58.288 14.6207 58.5894 17.9237 60.0826 19.6991C61.2262 21.0589 63.2661 21.0277 64.3633 19.621C65.1495 18.6124 65.3234 17.4164 65.3466 16.3824L65.3446 16.3805Z" fill="#FEFEFE"/>
<path d="M74.078 9.50736C74.2827 9.53662 74.3426 9.37664 74.4334 9.27324C75.8706 7.64614 77.671 7.16815 79.6819 7.79246C81.7315 8.42847 82.537 10.1141 82.8461 12.1099C82.9852 13.0035 82.9639 13.9048 82.9813 14.8042C83.0257 16.9464 83.0972 19.0866 83.1223 21.2268C83.1378 22.5652 81.8319 23.3026 80.6787 22.6452C80.103 22.3174 79.9466 21.7965 79.933 21.1722C79.8693 18.5208 79.8036 15.8695 79.7109 13.2181C79.6587 11.751 79.029 10.8594 77.9414 10.6058C76.68 10.3131 75.465 10.8984 74.7792 12.108C74.3233 12.9137 74.1243 13.7761 74.1437 14.695C74.1939 16.9327 74.248 19.1724 74.3059 21.4102C74.3233 22.0755 74.1031 22.6257 73.4869 22.9085C72.8842 23.1856 72.2641 23.1602 71.7 22.7642C71.2963 22.4793 71.1224 22.0774 71.1128 21.5741C71.022 17.5609 70.9157 13.5478 70.8269 9.53272C70.8037 8.45384 71.3214 7.89196 72.3587 7.80807C73.2628 7.73588 73.8771 8.30361 74.0123 9.32787C74.02 9.39225 74.0567 9.45078 74.078 9.50541V9.50736Z" fill="#FEFEFE"/>
<path d="M105.386 7.99147C106.85 7.96025 108.092 8.35045 109.193 9.18546C110.176 9.93073 110.738 10.9179 110.756 12.1704C110.767 13.0932 110.308 13.6532 109.556 13.7215C108.729 13.7975 107.962 13.2396 107.783 12.4319C107.46 10.9764 106.112 10.2526 104.727 10.7735C104.178 10.9803 103.827 11.3686 103.734 11.9305C103.639 12.508 103.902 12.9703 104.379 13.3039C104.964 13.7117 105.637 13.9146 106.303 14.1273C107.062 14.3692 107.821 14.6033 108.536 14.9662C111.173 16.3104 111.666 19.6465 109.533 21.7419C107.13 24.1025 102.492 23.8079 100.456 21.1566C99.8878 20.4172 99.629 19.5665 99.6811 18.632C99.7275 17.7873 100.311 17.2312 101.132 17.2117C102.042 17.1903 102.602 17.678 102.693 18.5716C102.811 19.707 103.243 20.2611 104.294 20.5518C105.386 20.8542 106.423 20.7722 107.223 19.867C107.847 19.1607 107.744 18.3023 107.033 17.6644C106.684 17.3503 106.266 17.1649 105.832 17.0108C104.831 16.6577 103.811 16.3475 102.839 15.926C101.493 15.3427 100.562 14.3945 100.496 12.7986C100.425 11.0428 101.068 9.66345 102.571 8.74259C103.458 8.20022 104.429 7.94465 105.384 7.99342L105.386 7.99147Z" fill="#FEFEFE"/>
<path d="M24.7358 27.7001C23.4203 27.6162 21.7146 27.7879 20.034 28.3361C18.5369 28.8238 17.6483 28.1547 17.4184 26.588C16.8852 22.9592 16.3115 19.3343 15.7571 15.7075C15.5581 14.4101 15.3669 13.1127 15.1757 11.8153C15.0424 10.9081 15.6026 10.1609 16.5317 9.99898C17.3315 9.86046 18.1525 10.3989 18.2915 11.2359C18.7339 13.9185 19.1434 16.6088 19.5646 19.2953C19.835 21.0219 20.117 22.7485 20.3701 24.4771C20.43 24.879 20.5806 25.0585 20.9824 24.9375C22.352 24.522 23.7525 24.6176 25.1473 24.6897C26.71 24.7717 28.2245 24.6683 29.654 23.9386C30.1987 23.6596 30.7879 23.5484 31.4061 23.7611C31.9991 23.9659 32.4376 24.3249 32.5381 24.9629C32.6327 25.556 32.3005 25.9891 31.8504 26.3188C30.8265 27.0699 29.6289 27.3431 28.4138 27.5655C27.3378 27.7625 26.2522 27.7176 24.7377 27.6962L24.7358 27.7001Z" fill="#FEFEFE"/>
<path d="M89.4758 16.0353C89.4758 17.7151 89.4797 19.393 89.4758 21.0727C89.4719 22.2336 88.8113 22.9457 87.7952 22.8949C86.7849 22.8462 86.2131 22.0677 86.2305 20.9225C86.2807 17.5181 86.2884 14.1117 86.329 10.7073C86.3329 10.2937 86.1803 10.1766 85.7881 10.1356C84.859 10.042 84.461 9.62642 84.4494 8.83628C84.4378 8.04809 84.8184 7.62668 85.7611 7.53108C86.2942 7.47841 86.3445 7.21503 86.3464 6.76631C86.356 5.22504 86.7153 3.80474 88.0347 2.85267C89.1493 2.04887 90.4417 1.88889 91.7649 2.06058C92.4507 2.15032 92.951 2.83121 92.9568 3.5199C92.9626 4.13836 92.4989 4.65731 91.7958 4.80949C91.6316 4.8446 91.4616 4.87582 91.2955 4.87387C89.7559 4.87387 89.4893 5.85716 89.5299 7.12919C89.5415 7.49987 89.7617 7.5584 90.0611 7.5545C90.6155 7.54864 91.1699 7.54084 91.7243 7.5584C92.5936 7.58571 93.121 8.10857 93.1074 8.90261C93.092 9.75323 92.6361 10.1805 91.705 10.2C91.2472 10.2098 90.7855 10.2371 90.3315 10.1922C89.7134 10.1317 89.4777 10.3288 89.4951 10.996C89.5395 12.6738 89.5106 14.3536 89.5106 16.0314C89.499 16.0314 89.4874 16.0314 89.4758 16.0314V16.0353Z" fill="#FEFEFE"/>
<path d="M21.6218 20.815C21.9193 19.0396 22.2245 17.2194 22.5298 15.3991C22.8099 13.7232 23.0958 12.0474 23.3701 10.3695C23.5401 9.32772 23.9631 8.84388 24.8845 8.68C25.7577 8.52392 26.3507 8.86339 26.8337 9.80961C28.4022 12.8765 29.965 15.9473 31.5316 19.0143C31.8175 19.5742 31.8716 20.1263 31.4969 20.6667C31.1453 21.1759 30.6469 21.3632 30.0481 21.293C29.6733 21.2501 29.3546 21.092 29.1228 20.7838C29.0068 20.6297 28.9122 20.458 28.8098 20.296C28.4505 19.7322 28.3771 18.7548 27.7628 18.6455C26.9534 18.5012 26.0629 18.8289 25.2052 18.9499C24.9483 18.987 24.9386 19.1879 24.9077 19.381C24.8092 20.0054 24.7319 20.6336 24.6006 21.2501C24.4209 22.1026 23.7255 22.5689 22.8891 22.4441C22.0874 22.3231 21.5871 21.7007 21.6199 20.8092L21.6218 20.815ZM25.7982 13.8501L25.6109 13.8949C25.5336 14.4139 25.4428 14.9309 25.3791 15.4518C25.2265 16.6985 25.4409 16.8584 26.6637 16.4839C26.9611 16.3922 27.0017 16.2654 26.88 16.0215C26.5207 15.2977 26.1595 14.5739 25.7982 13.8481V13.8501Z" fill="#FEFEFE"/>
<path d="M131.767 11.942C132.573 11.1285 133.428 10.6856 134.439 10.5549C134.974 10.4866 135.497 10.5061 136.017 10.6251C136.73 10.7909 137.135 11.3255 137.07 11.981C136.998 12.6951 136.513 13.1867 135.791 13.2355C135.457 13.257 135.117 13.2062 134.781 13.2121C133.054 13.2414 131.792 14.1934 131.342 15.8869C130.892 17.5842 130.855 19.3479 130.625 21.0803C130.504 21.9953 130.427 22.9162 130.301 23.8293C130.173 24.7501 129.457 25.3022 128.572 25.1988C127.685 25.0954 127.056 24.4126 127.145 23.5171C127.384 21.0998 127.67 18.6885 127.942 16.2751C128.114 14.7553 128.307 13.2375 128.47 11.7157C128.597 10.5256 129.173 9.91691 130.172 9.96179C131.122 10.0047 131.688 10.6485 131.763 11.942H131.767Z" fill="#FEFEFE"/>
<path d="M138.619 26.4183C137.558 26.4163 136.888 25.6457 137.035 24.5376C137.427 21.5994 137.84 18.6652 138.246 15.729C138.399 14.6228 138.532 13.5127 138.714 12.4104C138.87 11.4602 139.678 10.9257 140.618 11.0954C141.466 11.2476 141.994 12.0143 141.868 12.9371C141.335 16.8859 140.8 20.8327 140.257 24.7795C140.097 25.9462 139.606 26.4202 138.617 26.4183H138.619Z" fill="#FEFEFE"/>
<path d="M97.9155 11.9401C97.8247 15.0968 97.7358 18.2535 97.6393 21.4101C97.6103 22.3661 96.9535 23.0119 96.0379 23.008C95.1608 23.0041 94.448 22.2959 94.4674 21.3575C94.5524 17.2526 94.6509 13.1478 94.7648 9.04492C94.7919 8.04992 95.4313 7.5017 96.4203 7.53487C97.4055 7.56608 97.985 8.21381 97.9734 9.24587C97.9638 10.1433 97.9715 11.0427 97.9715 11.9401C97.9522 11.9401 97.9348 11.9401 97.9155 11.9401Z" fill="#FEFEFE"/>
<path d="M139.077 8.0733C139.077 7.03149 139.95 6.12039 140.927 6.13794C141.936 6.1555 142.737 6.98271 142.747 8.01087C142.757 9.08 141.882 10.0009 140.854 10.0009C139.925 10.0009 139.075 9.08 139.075 8.07135L139.077 8.0733Z" fill="#FEFEFE"/>
<path d="M96.4609 6.37407C95.4796 6.37797 94.649 5.53125 94.6296 4.50699C94.6084 3.43201 95.4951 2.47994 96.4938 2.50335C97.4403 2.52676 98.2961 3.43591 98.3019 4.42505C98.3077 5.46102 97.448 6.37017 96.4609 6.37407Z" fill="#FEFEFE"/>
</g>
<defs>
<clipPath id="clip0_793_222">
<rect width="173.143" height="60" fill="white" transform="translate(0 2)"/>
</clipPath>
</defs>
</svg>
